<svg xmlns="http://www.w3.org/2000/svg" xml:space="preserve" width="24" height="24"><path d="M106.393-13.493c-10.488.86-19.25 8.423-21.632 18.673-.25 1.076.523 1.965 1.628 1.965h6.402c1.105 0 2.213-.876 2.64-1.894a14.06 14.06 0 0 1 10.966-8.475c1.093-.156 2.894-.156 3.987 0a14.06 14.06 0 0 1 10.967 8.475c.426 1.018 1.535 1.894 2.64 1.894h6.402c1.104 0 1.877-.89 1.627-1.965-2.381-10.25-11.143-17.814-21.632-18.673-1.1-.09-2.895-.09-3.995 0M84.645 15.666c2.192 10.496 11.061 18.327 21.748 19.202 1.1.09 2.895.09 3.995 0 10.687-.875 19.556-8.706 21.748-19.202.226-1.081-.567-1.973-1.671-1.973h-6.348c-1.104 0-2.178.883-2.564 1.917a14.06 14.06 0 0 1-11.17 8.989c-1.092.156-2.893.156-3.986 0a14.06 14.06 0 0 1-11.169-8.989c-.386-1.034-1.46-1.917-2.564-1.917h-6.348c-1.104 0-1.897.892-1.671 1.973" style="fill:#d3dae3;fill-opacity:1;stroke:none" transform="rotate(-45 34.102 36.42)scale(.32974)"/></svg>
